<svg width="30" height="30" viewBox="0 0 30 30" fill="none" xmlns="http://www.w3.org/2000/svg">
<path d="M13.3333 5.42785C9.24575 6.01253 6.01253 9.24575 5.42785 13.3333H8V16H5.42785C6.01253 20.0876 9.24575 23.3208 13.3333 23.9055V21.3333H16V23.9055C20.0876 23.3208 23.3208 20.0876 23.9055 16H21.3333V13.3333H23.9055C23.3208 9.24575 20.0876 6.01253 16 5.42785V8H13.3333V5.42785ZM2.73991 13.3333C3.35477 7.77117 7.77117 3.35477 13.3333 2.73991V0H16V2.73991C21.5621 3.35477 25.9785 7.77117 26.5935 13.3333H29.3333V16H26.5935C25.9785 21.5621 21.5621 25.9785 16 26.5935V29.3333H13.3333V26.5935C7.77117 25.9785 3.35477 21.5621 2.73991 16H0V13.3333H2.73991ZM18.6667 14.6667C18.6667 16.8759 16.8759 18.6667 14.6667 18.6667C12.4575 18.6667 10.6667 16.8759 10.6667 14.6667C10.6667 12.4575 12.4575 10.6667 14.6667 10.6667C16.8759 10.6667 18.6667 12.4575 18.6667 14.6667Z" fill="#000091"/>
</svg>
