<svg width="32" height="32" viewBox="0 0 32 32" fill="none" xmlns="http://www.w3.org/2000/svg">
<path fill-rule="evenodd" clip-rule="evenodd" d="M16.0003 29.3333C8.63633 29.3333 2.66699 23.364 2.66699 16C2.66699 8.636 8.63633 2.66667 16.0003 2.66667C23.3643 2.66667 29.3337 8.636 29.3337 16C29.3337 23.364 23.3643 29.3333 16.0003 29.3333ZM16.0003 26.6667C21.8914 26.6667 26.667 21.891 26.667 16C26.667 10.109 21.8914 5.33334 16.0003 5.33334C10.1093 5.33334 5.33366 10.109 5.33366 16C5.33366 21.891 10.1093 26.6667 16.0003 26.6667ZM14.667 9.33334H17.3337V12H14.667V9.33334ZM14.667 14.6667H17.3337V22.6667H14.667V14.6667Z" fill="#000091"/>
</svg>
