<svg preserveAspectRatio="none" width="100%" height="100%" overflow="visible" style="display: block;" viewBox="0 0 297 298" fill="none" xmlns="http://www.w3.org/2000/svg">
<g id="passport">
<g id="&#240;&#159;&#145;&#129;&#239;&#184;&#143; Masquer si besoin - D&#195;&#169;corative">
<path id="Path" fill-rule="evenodd" clip-rule="evenodd" d="M63.1125 29.8C61.0654 29.8 59.4 28.129 59.4 26.075C59.4 24.0209 61.0654 22.35 63.1125 22.35C65.1596 22.35 66.825 24.0209 66.825 26.075C66.825 28.129 65.1596 29.8 63.1125 29.8Z" fill="var(--fill-0, #000091)"/>
<path id="Path_2" fill-rule="evenodd" clip-rule="evenodd" d="M25.9875 238.4C23.9404 238.4 22.275 236.729 22.275 234.675C22.275 232.621 23.9404 230.95 25.9875 230.95C28.0346 230.95 29.7 232.621 29.7 234.675C29.7 236.729 28.0346 238.4 25.9875 238.4Z" fill="var(--fill-0, #000091)"/>
<path id="Path_3" fill-rule="evenodd" clip-rule="evenodd" d="M285.863 216.05C283.815 216.05 282.15 214.379 282.15 212.325C282.15 210.271 283.815 208.6 285.863 208.6C287.91 208.6 289.575 210.271 289.575 212.325C289.575 214.379 287.91 216.05 285.863 216.05Z" fill="var(--fill-0, #000091)"/>
<path id="Path_4" fill-rule="evenodd" clip-rule="evenodd" d="M226.463 22.35C224.415 22.35 222.75 20.679 222.75 18.625C222.75 16.5709 224.415 14.9 226.463 14.9C228.51 14.9 230.175 16.5709 230.175 18.625C230.175 20.679 228.51 22.35 226.463 22.35Z" fill="var(--fill-0, #000091)"/>
</g>
<path id="&#240;&#159;&#142;&#168; Mineure (indice - main)" d="M185.625 161.304C185.625 159.247 183.963 157.579 181.912 157.579H115.088L114.655 157.604C112.808 157.819 111.375 159.393 111.375 161.304C111.375 163.361 113.037 165.029 115.088 165.029H181.912L182.345 165.004C184.192 164.789 185.625 163.214 185.625 161.304Z" fill="var(--fill-0, #E1000F)"/>
<path id="Majeure" fill-rule="evenodd" clip-rule="evenodd" d="M73.8911 52.5825L73.8943 52.5987C65.5993 54.4597 59.4 61.8909 59.4 70.775V249.575L59.4172 250.383C59.8388 260.294 67.9805 268.2 77.9625 268.2H219.038L219.843 268.183C229.721 267.76 237.6 259.591 237.6 249.575V212.325L237.575 211.891C237.361 210.038 235.791 208.6 233.888 208.6C231.837 208.6 230.175 210.268 230.175 212.325V249.575L230.156 250.232C229.817 256.098 224.969 260.75 219.038 260.75H77.9625L77.3081 260.731C71.4616 260.391 66.825 255.526 66.825 249.575V70.775L66.8439 70.1184C67.1827 64.2522 72.0311 59.6 77.9625 59.6H219.038L219.692 59.619C225.538 59.9589 230.175 64.8236 230.175 70.775V175.075L230.2 175.509C230.414 177.362 231.984 178.8 233.888 178.8C235.938 178.8 237.6 177.132 237.6 175.075V70.775L237.583 69.9671C237.161 60.0556 229.02 52.15 219.038 52.15H204.197L204.205 49.2329L204.188 48.425C203.766 38.5135 195.976 30.1602 185.994 30.1602L185.266 30.2325L73.8911 52.5825Z" fill="var(--fill-0, #000091)"/>
<path id="Majeure_2" fill-rule="evenodd" clip-rule="evenodd" d="M196.763 48.425V52.15H113.899L186.306 37.6173L186.649 37.6291C192.495 37.969 196.763 42.4736 196.763 48.425Z" fill="var(--fill-0, #000091)"/>
<path id="Majeure_3" d="M170.775 146.404C170.775 144.347 169.113 142.679 167.062 142.679H129.937L129.505 142.704C127.658 142.919 126.225 144.493 126.225 146.404C126.225 148.461 127.887 150.129 129.937 150.129H167.062L167.495 150.104C169.342 149.889 170.775 148.314 170.775 146.404Z" fill="var(--fill-0, #000091)"/>
<path id="Majeure_4" d="M174.488 172.479C176.538 172.479 178.2 174.147 178.2 176.204C178.2 178.114 176.767 179.689 174.921 179.904L174.488 179.929H122.513C120.462 179.929 118.8 178.261 118.8 176.204C118.8 174.293 120.233 172.719 122.08 172.504L122.513 172.479H174.488Z" fill="var(--fill-0, #000091)"/>
<path id="Majeure_5" d="M170.775 191.104C170.775 189.047 169.113 187.379 167.062 187.379H129.937L129.505 187.404C127.658 187.619 126.225 189.193 126.225 191.104C126.225 193.161 127.887 194.829 129.937 194.829H167.062L167.495 194.804C169.342 194.589 170.775 193.014 170.775 191.104Z" fill="var(--fill-0, #000091)"/>
</g>
</svg>
