<svg width="297" height="297" viewBox="0 0 297 297" fill="none" xmlns="http://www.w3.org/2000/svg">
<path fill-rule="evenodd" clip-rule="evenodd" d="M63.1125 29.7C61.0655 29.7 59.4 28.0346 59.4 25.9875C59.4 23.9402 61.0655 22.275 63.1125 22.275C65.1596 22.275 66.825 23.9402 66.825 25.9875C66.825 28.0346 65.1596 29.7 63.1125 29.7Z" fill="#ECECFE"/>
<path fill-rule="evenodd" clip-rule="evenodd" d="M25.9875 237.6C23.9405 237.6 22.275 235.935 22.275 233.888C22.275 231.84 23.9405 230.175 25.9875 230.175C28.0346 230.175 29.7 231.84 29.7 233.888C29.7 235.935 28.0346 237.6 25.9875 237.6Z" fill="#ECECFE"/>
<path fill-rule="evenodd" clip-rule="evenodd" d="M285.863 215.325C283.815 215.325 282.15 213.66 282.15 211.612C282.15 209.565 283.815 207.9 285.863 207.9C287.91 207.9 289.575 209.565 289.575 211.612C289.575 213.66 287.91 215.325 285.863 215.325Z" fill="#ECECFE"/>
<path fill-rule="evenodd" clip-rule="evenodd" d="M226.463 22.275C224.415 22.275 222.75 20.6096 222.75 18.5625C222.75 16.5153 224.415 14.85 226.463 14.85C228.51 14.85 230.175 16.5153 230.175 18.5625C230.175 20.6096 228.51 22.275 226.463 22.275Z" fill="#ECECFE"/>
<path d="M231.132 175.22C231.569 178.682 234.51 181.229 238.046 181.229C241.901 181.229 245 178.205 245 174.504V68.8561C244.483 57.197 234.589 48.0846 222.469 48.0846H209.992V47.249C209.436 35.3114 199.7 26 187.819 26H187.74L186.786 26.0796L69.643 48.5621L67.7754 48.96L66.623 49.1988L66.7025 49.4376C58.0002 52.5413 52 60.7783 52 69.7713V250.229C52.5166 261.888 62.411 271 74.5306 271H223.423C235.543 270.483 245 260.972 245 249.313V211.153C244.563 207.731 241.583 205.184 238.046 205.184C234.231 205.184 231.092 208.208 231.092 211.909V249.831C230.814 254.128 227.039 257.55 222.469 257.55H73.9345C69.4443 257.272 65.9078 253.651 65.9078 249.313V69.254C66.1859 64.9167 69.9609 61.5344 74.5306 61.5344H223.026C227.556 61.7731 231.092 65.3942 231.092 69.7713V175.22H231.132ZM196.045 48.0846H143.513L188.336 39.4497C192.866 39.7283 196.045 42.9514 196.045 47.3286V48.0846Z" fill="#000091"/>
<path d="M177.425 184.93C177.425 188.312 175.329 191.217 172.546 191.575L172.045 191.655H125.383C122.38 191.655 119.91 188.63 119.91 184.93C119.91 181.508 122.005 178.643 124.789 178.245L171.951 178.205C174.954 178.205 177.425 181.229 177.425 184.93Z" fill="#000091"/>
<path d="M192.826 207.53C192.826 210.913 190.164 213.818 186.627 214.176L111.128 214.215C107.273 214.215 104.174 211.231 104.174 207.53C104.174 204.108 106.836 201.243 110.373 200.845L185.872 200.805C189.687 200.805 192.826 203.79 192.826 207.53Z" fill="#000091"/>
<path d="M184.256 230.135C184.256 233.517 181.663 236.422 178.218 236.78L119.845 236.82C116.129 236.82 113.11 233.836 113.11 230.135C113.11 226.713 115.665 223.848 119.11 223.45L177.482 223.41C181.198 223.41 184.256 226.394 184.256 230.135Z" fill="#000091"/>
<path d="M202.72 86.4832V86.6026L202.442 86.9209L150.984 146.927C149.871 148.201 148.242 148.957 146.533 148.957C145.142 148.957 143.791 148.479 142.718 147.524L142.599 147.445H142.559C142.559 147.445 142.122 146.967 142.003 146.808L118.121 118.755C115.539 115.691 115.817 111.035 118.718 108.369C120.069 107.096 121.777 106.419 123.565 106.419C125.354 106.419 127.142 107.135 128.572 108.448L128.731 108.608H128.771L146.533 129.578L191.316 77.4106C192.627 75.9383 194.415 75.0629 196.363 74.9435H196.76C198.548 74.9435 200.257 75.62 201.648 76.8933C204.27 79.3604 204.707 83.459 202.72 86.4832Z" fill="#000091"/>
</svg>
